<svg width="64" height="64" viewBox="0 0 64 64" fill="none" xmlns="http://www.w3.org/2000/svg">
<path d="M19.7333 18.6667H12.2666C11.383 18.6667 10.6666 19.383 10.6666 20.2667V43.7333C10.6666 44.617 11.383 45.3333 12.2666 45.3333H19.7333C20.6169 45.3333 21.3333 44.617 21.3333 43.7333V20.2667C21.3333 19.383 20.6169 18.6667 19.7333 18.6667Z" stroke="#d5fb00" stroke-width="4" stroke-linecap="round" stroke-linejoin="round"/>
<path d="M51.7333 18.6667H44.2666C43.383 18.6667 42.6666 19.383 42.6666 20.2667V43.7333C42.6666 44.617 43.383 45.3333 44.2666 45.3333H51.7333C52.6169 45.3333 53.3333 44.617 53.3333 43.7333V20.2667C53.3333 19.383 52.6169 18.6667 51.7333 18.6667Z" stroke="#d5fb00" stroke-width="4" stroke-linecap="round" stroke-linejoin="round"/>
<path d="M2.66663 38.4V25.6C2.66663 24.7163 3.38297 24 4.26663 24H9.06663C9.95028 24 10.6666 24.7163 10.6666 25.6V38.4C10.6666 39.2837 9.95028 40 9.06663 40H4.26663C3.38297 40 2.66663 39.2837 2.66663 38.4Z" stroke="#d5fb00" stroke-width="4" stroke-linecap="round" stroke-linejoin="round"/>
<path d="M61.3334 38.4V25.6C61.3334 24.7163 60.617 24 59.7334 24H54.9334C54.0497 24 53.3334 24.7163 53.3334 25.6V38.4C53.3334 39.2837 54.0497 40 54.9334 40H59.7334C60.617 40 61.3334 39.2837 61.3334 38.4Z" stroke="#d5fb00" stroke-width="4" stroke-linecap="round" stroke-linejoin="round"/>
<path d="M21.3334 32H42.6667" stroke="#d5fb00" stroke-width="4" stroke-linecap="round" stroke-linejoin="round"/>
</svg>
