<svg width="64" height="64" viewBox="0 0 64 64" fill="none" xmlns="http://www.w3.org/2000/svg">
<path d="M32 32C37.8911 32 42.6667 27.2244 42.6667 21.3333C42.6667 15.4423 37.8911 10.6667 32 10.6667C26.109 10.6667 21.3334 15.4423 21.3334 21.3333C21.3334 27.2244 26.109 32 32 32Z" stroke="#d5fb00" stroke-width="4" stroke-linecap="round" stroke-linejoin="round"/>
<path d="M58.6667 46.0793C58.6667 47.6831 58.0334 49.2235 56.9022 50.363C54.2986 52.9869 51.7733 55.7228 49.0724 58.2516C48.4533 58.8228 47.4711 58.8019 46.8788 58.2049L39.0974 50.363C36.7454 47.9927 36.7454 44.166 39.0974 41.7957C41.4725 39.4021 45.3418 39.4021 47.717 41.7957L47.9998 42.0807L48.2825 41.7959C49.4213 40.6476 50.9722 40 52.5924 40C54.2125 40 55.7634 40.6476 56.9022 41.7957C58.0334 42.9353 58.6667 44.4756 58.6667 46.0793Z" stroke="#d5fb00" stroke-width="4" stroke-linejoin="round"/>
<path d="M13.3334 53.3333V50.6667C13.3334 40.3574 21.6907 32 32 32C34.863 32 37.5754 32.6445 40 33.7963" stroke="#d5fb00" stroke-width="4" stroke-linecap="round" stroke-linejoin="round"/>
</svg>
