<svg width="64" height="64" viewBox="0 0 64 64" fill="none" xmlns="http://www.w3.org/2000/svg">
<path d="M38.8571 40.0096L41.1428 44.9297C41.1428 44.9297 51.4285 47.1141 51.4285 52.3099C51.4285 56 46.8571 56 46.8571 56H34.6666L28.6666 52.6667" stroke="#d5fb00" stroke-width="4" stroke-linecap="round" stroke-linejoin="round"/>
<path d="M25.1428 40.0096L22.8571 44.9297C22.8571 44.9297 12.5714 47.114 12.5714 52.3099C12.5714 56 17.1428 56 17.1428 56H22.6666L28.6666 52.6667L36 48" stroke="#d5fb00" stroke-width="4" stroke-linecap="round" stroke-linejoin="round"/>
<path d="M8 42.4697C8 42.4697 13.7143 41.2396 17.1429 40.0096C20.5714 22.7892 30.8571 24.0192 32 24.0192C33.1429 24.0192 43.4286 22.7892 46.8571 40.0096C50.2857 41.2396 56 42.4697 56 42.4697" stroke="#d5fb00" stroke-width="4" stroke-linecap="round" stroke-linejoin="round"/>
<path d="M32 18.6667C34.9455 18.6667 37.3333 16.2789 37.3333 13.3333C37.3333 10.3878 34.9455 8 32 8C29.0544 8 26.6666 10.3878 26.6666 13.3333C26.6666 16.2789 29.0544 18.6667 32 18.6667Z" stroke="#d5fb00" stroke-width="4" stroke-linecap="round" stroke-linejoin="round"/>
</svg>
